<mxfile host="app.diagrams.net" modified="2022-08-06T14:29:19.089Z" agent="5.0 (Windows NT 10.0; Win64; x64) AppleWebKit/537.36 (KHTML, like Gecko) Chrome/104.0.0.0 Safari/537.36" etag="t5B4GaoOq_XrMom5xK0N" version="20.2.3" type="github">
  <diagram id="C5RBs43oDa-KdzZeNtuy" name="Page-1">
    <mxGraphModel dx="920" dy="513" grid="1" gridSize="10" guides="1" tooltips="1" connect="1" arrows="1" fold="1" page="1" pageScale="1" pageWidth="827" pageHeight="1169" math="0" shadow="0">
      <root>
        <mxCell id="WIyWlLk6GJQsqaUBKTNV-0" />
        <mxCell id="WIyWlLk6GJQsqaUBKTNV-1" parent="WIyWlLk6GJQsqaUBKTNV-0" />
        <mxCell id="OVrJjrNSemVMYTaNREUh-0" style="edgeStyle=orthogonalEdgeStyle;rounded=0;orthogonalLoop=1;jettySize=auto;html=1;" parent="WIyWlLk6GJQsqaUBKTNV-1" source="OVrJjrNSemVMYTaNREUh-1" target="OVrJjrNSemVMYTaNREUh-3" edge="1">
          <mxGeometry relative="1" as="geometry" />
        </mxCell>
        <mxCell id="OVrJjrNSemVMYTaNREUh-1" value="INICIO" style="rounded=1;whiteSpace=wrap;html=1;arcSize=50;" parent="WIyWlLk6GJQsqaUBKTNV-1" vertex="1">
          <mxGeometry x="344" y="50" width="140" height="60" as="geometry" />
        </mxCell>
        <mxCell id="OVrJjrNSemVMYTaNREUh-2" style="edgeStyle=orthogonalEdgeStyle;rounded=0;orthogonalLoop=1;jettySize=auto;html=1;" parent="WIyWlLk6GJQsqaUBKTNV-1" source="OVrJjrNSemVMYTaNREUh-3" target="OVrJjrNSemVMYTaNREUh-5" edge="1">
          <mxGeometry relative="1" as="geometry" />
        </mxCell>
        <mxCell id="OVrJjrNSemVMYTaNREUh-3" value="int i&lt;br&gt;int j&lt;br&gt;char m[5][5]" style="rounded=0;whiteSpace=wrap;html=1;" parent="WIyWlLk6GJQsqaUBKTNV-1" vertex="1">
          <mxGeometry x="354" y="160" width="120" height="60" as="geometry" />
        </mxCell>
        <mxCell id="OVrJjrNSemVMYTaNREUh-40" style="edgeStyle=orthogonalEdgeStyle;rounded=0;orthogonalLoop=1;jettySize=auto;html=1;entryX=0.5;entryY=0;entryDx=0;entryDy=0;" parent="WIyWlLk6GJQsqaUBKTNV-1" source="OVrJjrNSemVMYTaNREUh-5" target="OVrJjrNSemVMYTaNREUh-32" edge="1">
          <mxGeometry relative="1" as="geometry" />
        </mxCell>
        <mxCell id="OVrJjrNSemVMYTaNREUh-5" value="i = 0&lt;br&gt;j = 0" style="rounded=0;whiteSpace=wrap;html=1;" parent="WIyWlLk6GJQsqaUBKTNV-1" vertex="1">
          <mxGeometry x="354" y="280" width="120" height="60" as="geometry" />
        </mxCell>
        <mxCell id="OVrJjrNSemVMYTaNREUh-20" style="edgeStyle=orthogonalEdgeStyle;rounded=0;orthogonalLoop=1;jettySize=auto;html=1;entryX=1;entryY=0.5;entryDx=0;entryDy=0;" parent="WIyWlLk6GJQsqaUBKTNV-1" source="OVrJjrNSemVMYTaNREUh-21" edge="1">
          <mxGeometry relative="1" as="geometry">
            <Array as="points">
              <mxPoint x="740" y="1525" />
              <mxPoint x="1010" y="1525" />
              <mxPoint x="1010" y="1138" />
            </Array>
            <mxPoint x="790" y="1137.5" as="targetPoint" />
          </mxGeometry>
        </mxCell>
        <mxCell id="OVrJjrNSemVMYTaNREUh-44" style="edgeStyle=orthogonalEdgeStyle;rounded=0;orthogonalLoop=1;jettySize=auto;html=1;" parent="WIyWlLk6GJQsqaUBKTNV-1" source="OVrJjrNSemVMYTaNREUh-32" target="OVrJjrNSemVMYTaNREUh-35" edge="1">
          <mxGeometry relative="1" as="geometry" />
        </mxCell>
        <mxCell id="OVrJjrNSemVMYTaNREUh-32" value="" style="ellipse;whiteSpace=wrap;html=1;aspect=fixed;" parent="WIyWlLk6GJQsqaUBKTNV-1" vertex="1">
          <mxGeometry x="399" y="370" width="30" height="30" as="geometry" />
        </mxCell>
        <mxCell id="OVrJjrNSemVMYTaNREUh-45" value="V" style="edgeStyle=orthogonalEdgeStyle;rounded=0;orthogonalLoop=1;jettySize=auto;html=1;" parent="WIyWlLk6GJQsqaUBKTNV-1" source="OVrJjrNSemVMYTaNREUh-35" target="OVrJjrNSemVMYTaNREUh-36" edge="1">
          <mxGeometry relative="1" as="geometry" />
        </mxCell>
        <mxCell id="OVrJjrNSemVMYTaNREUh-58" value="F" style="edgeStyle=orthogonalEdgeStyle;rounded=0;orthogonalLoop=1;jettySize=auto;html=1;entryX=0.5;entryY=0;entryDx=0;entryDy=0;" parent="WIyWlLk6GJQsqaUBKTNV-1" source="OVrJjrNSemVMYTaNREUh-35" target="OVrJjrNSemVMYTaNREUh-59" edge="1">
          <mxGeometry relative="1" as="geometry">
            <Array as="points">
              <mxPoint x="340" y="480" />
              <mxPoint x="340" y="690" />
              <mxPoint x="414" y="690" />
            </Array>
          </mxGeometry>
        </mxCell>
        <mxCell id="OVrJjrNSemVMYTaNREUh-35" value="i&amp;lt;5" style="rhombus;whiteSpace=wrap;html=1;rounded=0;" parent="WIyWlLk6GJQsqaUBKTNV-1" vertex="1">
          <mxGeometry x="374" y="440" width="80" height="80" as="geometry" />
        </mxCell>
        <mxCell id="OVrJjrNSemVMYTaNREUh-46" style="edgeStyle=orthogonalEdgeStyle;rounded=0;orthogonalLoop=1;jettySize=auto;html=1;entryX=0.5;entryY=0;entryDx=0;entryDy=0;" parent="WIyWlLk6GJQsqaUBKTNV-1" source="OVrJjrNSemVMYTaNREUh-36" target="OVrJjrNSemVMYTaNREUh-37" edge="1">
          <mxGeometry relative="1" as="geometry" />
        </mxCell>
        <mxCell id="OVrJjrNSemVMYTaNREUh-36" value="j=0" style="rounded=1;whiteSpace=wrap;html=1;" parent="WIyWlLk6GJQsqaUBKTNV-1" vertex="1">
          <mxGeometry x="500" y="450" width="120" height="60" as="geometry" />
        </mxCell>
        <mxCell id="OVrJjrNSemVMYTaNREUh-47" style="edgeStyle=orthogonalEdgeStyle;rounded=0;orthogonalLoop=1;jettySize=auto;html=1;entryX=0.5;entryY=0;entryDx=0;entryDy=0;" parent="WIyWlLk6GJQsqaUBKTNV-1" source="OVrJjrNSemVMYTaNREUh-37" target="OVrJjrNSemVMYTaNREUh-38" edge="1">
          <mxGeometry relative="1" as="geometry" />
        </mxCell>
        <mxCell id="OVrJjrNSemVMYTaNREUh-37" value="" style="ellipse;whiteSpace=wrap;html=1;aspect=fixed;" parent="WIyWlLk6GJQsqaUBKTNV-1" vertex="1">
          <mxGeometry x="537.5" y="540" width="45" height="45" as="geometry" />
        </mxCell>
        <mxCell id="OVrJjrNSemVMYTaNREUh-51" value="F" style="edgeStyle=orthogonalEdgeStyle;rounded=0;orthogonalLoop=1;jettySize=auto;html=1;entryX=0.5;entryY=1;entryDx=0;entryDy=0;" parent="WIyWlLk6GJQsqaUBKTNV-1" source="OVrJjrNSemVMYTaNREUh-38" target="OVrJjrNSemVMYTaNREUh-50" edge="1">
          <mxGeometry relative="1" as="geometry" />
        </mxCell>
        <mxCell id="OVrJjrNSemVMYTaNREUh-56" value="V" style="edgeStyle=orthogonalEdgeStyle;rounded=0;orthogonalLoop=1;jettySize=auto;html=1;entryX=0;entryY=0.5;entryDx=0;entryDy=0;" parent="WIyWlLk6GJQsqaUBKTNV-1" source="OVrJjrNSemVMYTaNREUh-38" target="OVrJjrNSemVMYTaNREUh-55" edge="1">
          <mxGeometry relative="1" as="geometry" />
        </mxCell>
        <mxCell id="OVrJjrNSemVMYTaNREUh-38" value="j&amp;lt;5" style="rhombus;whiteSpace=wrap;html=1;rounded=0;" parent="WIyWlLk6GJQsqaUBKTNV-1" vertex="1">
          <mxGeometry x="520" y="610" width="80" height="80" as="geometry" />
        </mxCell>
        <mxCell id="OVrJjrNSemVMYTaNREUh-49" style="edgeStyle=orthogonalEdgeStyle;rounded=0;orthogonalLoop=1;jettySize=auto;html=1;entryX=1;entryY=0.5;entryDx=0;entryDy=0;" parent="WIyWlLk6GJQsqaUBKTNV-1" source="OVrJjrNSemVMYTaNREUh-48" target="OVrJjrNSemVMYTaNREUh-37" edge="1">
          <mxGeometry relative="1" as="geometry" />
        </mxCell>
        <mxCell id="OVrJjrNSemVMYTaNREUh-48" value="j++" style="rounded=0;whiteSpace=wrap;html=1;" parent="WIyWlLk6GJQsqaUBKTNV-1" vertex="1">
          <mxGeometry x="680" y="532.5" width="120" height="60" as="geometry" />
        </mxCell>
        <mxCell id="OVrJjrNSemVMYTaNREUh-54" style="edgeStyle=orthogonalEdgeStyle;rounded=0;orthogonalLoop=1;jettySize=auto;html=1;entryX=0;entryY=0.5;entryDx=0;entryDy=0;" parent="WIyWlLk6GJQsqaUBKTNV-1" source="OVrJjrNSemVMYTaNREUh-50" target="OVrJjrNSemVMYTaNREUh-32" edge="1">
          <mxGeometry relative="1" as="geometry" />
        </mxCell>
        <mxCell id="OVrJjrNSemVMYTaNREUh-50" value="I++" style="rounded=0;whiteSpace=wrap;html=1;" parent="WIyWlLk6GJQsqaUBKTNV-1" vertex="1">
          <mxGeometry x="180" y="355" width="120" height="60" as="geometry" />
        </mxCell>
        <mxCell id="OVrJjrNSemVMYTaNREUh-57" style="edgeStyle=orthogonalEdgeStyle;rounded=0;orthogonalLoop=1;jettySize=auto;html=1;entryX=1;entryY=0.5;entryDx=0;entryDy=0;" parent="WIyWlLk6GJQsqaUBKTNV-1" source="OVrJjrNSemVMYTaNREUh-55" target="OVrJjrNSemVMYTaNREUh-48" edge="1">
          <mxGeometry relative="1" as="geometry">
            <mxPoint x="870" y="550" as="targetPoint" />
            <Array as="points">
              <mxPoint x="910" y="650" />
              <mxPoint x="910" y="562" />
            </Array>
          </mxGeometry>
        </mxCell>
        <mxCell id="OVrJjrNSemVMYTaNREUh-55" value="m[i][j] = &#39; &#39;" style="rounded=0;whiteSpace=wrap;html=1;" parent="WIyWlLk6GJQsqaUBKTNV-1" vertex="1">
          <mxGeometry x="680" y="620" width="120" height="60" as="geometry" />
        </mxCell>
        <mxCell id="kn2tZkc_Uu4ycjHoZmaA-23" style="edgeStyle=orthogonalEdgeStyle;rounded=0;orthogonalLoop=1;jettySize=auto;html=1;entryX=0.5;entryY=0;entryDx=0;entryDy=0;" edge="1" parent="WIyWlLk6GJQsqaUBKTNV-1" source="OVrJjrNSemVMYTaNREUh-59" target="kn2tZkc_Uu4ycjHoZmaA-20">
          <mxGeometry relative="1" as="geometry" />
        </mxCell>
        <mxCell id="OVrJjrNSemVMYTaNREUh-59" value="i = 0&lt;br&gt;j = 0" style="rounded=0;whiteSpace=wrap;html=1;" parent="WIyWlLk6GJQsqaUBKTNV-1" vertex="1">
          <mxGeometry x="354" y="740" width="120" height="60" as="geometry" />
        </mxCell>
        <mxCell id="kn2tZkc_Uu4ycjHoZmaA-5" value="V" style="edgeStyle=orthogonalEdgeStyle;rounded=0;orthogonalLoop=1;jettySize=auto;html=1;" edge="1" parent="WIyWlLk6GJQsqaUBKTNV-1" source="kn2tZkc_Uu4ycjHoZmaA-1" target="kn2tZkc_Uu4ycjHoZmaA-7">
          <mxGeometry relative="1" as="geometry">
            <mxPoint x="560" y="1090" as="targetPoint" />
          </mxGeometry>
        </mxCell>
        <mxCell id="kn2tZkc_Uu4ycjHoZmaA-28" value="F" style="edgeStyle=orthogonalEdgeStyle;rounded=0;orthogonalLoop=1;jettySize=auto;html=1;" edge="1" parent="WIyWlLk6GJQsqaUBKTNV-1" source="kn2tZkc_Uu4ycjHoZmaA-1" target="kn2tZkc_Uu4ycjHoZmaA-30">
          <mxGeometry relative="1" as="geometry">
            <mxPoint x="413.9999999999998" y="1180.0000000000002" as="targetPoint" />
          </mxGeometry>
        </mxCell>
        <mxCell id="kn2tZkc_Uu4ycjHoZmaA-1" value="j&amp;lt;5" style="rhombus;whiteSpace=wrap;html=1;" vertex="1" parent="WIyWlLk6GJQsqaUBKTNV-1">
          <mxGeometry x="374" y="950" width="80" height="80" as="geometry" />
        </mxCell>
        <mxCell id="kn2tZkc_Uu4ycjHoZmaA-10" style="edgeStyle=orthogonalEdgeStyle;rounded=0;orthogonalLoop=1;jettySize=auto;html=1;entryX=0;entryY=0.5;entryDx=0;entryDy=0;" edge="1" parent="WIyWlLk6GJQsqaUBKTNV-1" source="kn2tZkc_Uu4ycjHoZmaA-7" target="kn2tZkc_Uu4ycjHoZmaA-9">
          <mxGeometry relative="1" as="geometry">
            <Array as="points" />
          </mxGeometry>
        </mxCell>
        <mxCell id="kn2tZkc_Uu4ycjHoZmaA-7" value="m[i][j] = &#39;*&#39;" style="rounded=0;whiteSpace=wrap;html=1;" vertex="1" parent="WIyWlLk6GJQsqaUBKTNV-1">
          <mxGeometry x="520" y="960" width="120" height="60" as="geometry" />
        </mxCell>
        <mxCell id="kn2tZkc_Uu4ycjHoZmaA-13" value="V" style="edgeStyle=orthogonalEdgeStyle;rounded=0;orthogonalLoop=1;jettySize=auto;html=1;" edge="1" parent="WIyWlLk6GJQsqaUBKTNV-1" source="kn2tZkc_Uu4ycjHoZmaA-9" target="kn2tZkc_Uu4ycjHoZmaA-11">
          <mxGeometry relative="1" as="geometry" />
        </mxCell>
        <mxCell id="kn2tZkc_Uu4ycjHoZmaA-14" value="F" style="edgeStyle=orthogonalEdgeStyle;rounded=0;orthogonalLoop=1;jettySize=auto;html=1;" edge="1" parent="WIyWlLk6GJQsqaUBKTNV-1" source="kn2tZkc_Uu4ycjHoZmaA-9" target="kn2tZkc_Uu4ycjHoZmaA-12">
          <mxGeometry relative="1" as="geometry" />
        </mxCell>
        <mxCell id="kn2tZkc_Uu4ycjHoZmaA-9" value="j&amp;lt;2" style="rhombus;whiteSpace=wrap;html=1;" vertex="1" parent="WIyWlLk6GJQsqaUBKTNV-1">
          <mxGeometry x="747" y="950" width="80" height="80" as="geometry" />
        </mxCell>
        <mxCell id="kn2tZkc_Uu4ycjHoZmaA-19" style="edgeStyle=orthogonalEdgeStyle;rounded=0;orthogonalLoop=1;jettySize=auto;html=1;" edge="1" parent="WIyWlLk6GJQsqaUBKTNV-1" source="kn2tZkc_Uu4ycjHoZmaA-11" target="kn2tZkc_Uu4ycjHoZmaA-15">
          <mxGeometry relative="1" as="geometry" />
        </mxCell>
        <mxCell id="kn2tZkc_Uu4ycjHoZmaA-11" value="i++" style="rounded=0;whiteSpace=wrap;html=1;" vertex="1" parent="WIyWlLk6GJQsqaUBKTNV-1">
          <mxGeometry x="860" y="960" width="120" height="60" as="geometry" />
        </mxCell>
        <mxCell id="kn2tZkc_Uu4ycjHoZmaA-18" style="edgeStyle=orthogonalEdgeStyle;rounded=0;orthogonalLoop=1;jettySize=auto;html=1;entryX=0;entryY=0.5;entryDx=0;entryDy=0;" edge="1" parent="WIyWlLk6GJQsqaUBKTNV-1" source="kn2tZkc_Uu4ycjHoZmaA-12" target="kn2tZkc_Uu4ycjHoZmaA-15">
          <mxGeometry relative="1" as="geometry" />
        </mxCell>
        <mxCell id="kn2tZkc_Uu4ycjHoZmaA-12" value="i--" style="rounded=0;whiteSpace=wrap;html=1;" vertex="1" parent="WIyWlLk6GJQsqaUBKTNV-1">
          <mxGeometry x="727" y="1070" width="120" height="60" as="geometry" />
        </mxCell>
        <mxCell id="kn2tZkc_Uu4ycjHoZmaA-26" style="edgeStyle=orthogonalEdgeStyle;rounded=0;orthogonalLoop=1;jettySize=auto;html=1;entryX=1;entryY=0.5;entryDx=0;entryDy=0;" edge="1" parent="WIyWlLk6GJQsqaUBKTNV-1" source="kn2tZkc_Uu4ycjHoZmaA-15" target="kn2tZkc_Uu4ycjHoZmaA-25">
          <mxGeometry relative="1" as="geometry">
            <Array as="points">
              <mxPoint x="1030" y="1100" />
              <mxPoint x="1030" y="870" />
            </Array>
          </mxGeometry>
        </mxCell>
        <mxCell id="kn2tZkc_Uu4ycjHoZmaA-15" value="" style="ellipse;whiteSpace=wrap;html=1;aspect=fixed;" vertex="1" parent="WIyWlLk6GJQsqaUBKTNV-1">
          <mxGeometry x="900" y="1080" width="40" height="40" as="geometry" />
        </mxCell>
        <mxCell id="kn2tZkc_Uu4ycjHoZmaA-24" style="edgeStyle=orthogonalEdgeStyle;rounded=0;orthogonalLoop=1;jettySize=auto;html=1;" edge="1" parent="WIyWlLk6GJQsqaUBKTNV-1" source="kn2tZkc_Uu4ycjHoZmaA-20" target="kn2tZkc_Uu4ycjHoZmaA-1">
          <mxGeometry relative="1" as="geometry" />
        </mxCell>
        <mxCell id="kn2tZkc_Uu4ycjHoZmaA-20" value="" style="ellipse;whiteSpace=wrap;html=1;aspect=fixed;" vertex="1" parent="WIyWlLk6GJQsqaUBKTNV-1">
          <mxGeometry x="393" y="850" width="40" height="40" as="geometry" />
        </mxCell>
        <mxCell id="kn2tZkc_Uu4ycjHoZmaA-27" style="edgeStyle=orthogonalEdgeStyle;rounded=0;orthogonalLoop=1;jettySize=auto;html=1;entryX=1;entryY=0.5;entryDx=0;entryDy=0;" edge="1" parent="WIyWlLk6GJQsqaUBKTNV-1" source="kn2tZkc_Uu4ycjHoZmaA-25" target="kn2tZkc_Uu4ycjHoZmaA-20">
          <mxGeometry relative="1" as="geometry" />
        </mxCell>
        <mxCell id="kn2tZkc_Uu4ycjHoZmaA-25" value="j++" style="rounded=0;whiteSpace=wrap;html=1;" vertex="1" parent="WIyWlLk6GJQsqaUBKTNV-1">
          <mxGeometry x="650" y="840" width="120" height="60" as="geometry" />
        </mxCell>
        <mxCell id="kn2tZkc_Uu4ycjHoZmaA-30" value="FIN" style="rounded=1;whiteSpace=wrap;html=1;arcSize=50;" vertex="1" parent="WIyWlLk6GJQsqaUBKTNV-1">
          <mxGeometry x="343" y="1120" width="140" height="60" as="geometry" />
        </mxCell>
      </root>
    </mxGraphModel>
  </diagram>
</mxfile>
